<?xml version="1.0" encoding="UTF-8" standalone="no"?>
<!-- Created with Inkscape (http://www.inkscape.org/) -->

<svg
   xmlns:dc="http://purl.org/dc/elements/1.1/"
   xmlns:cc="http://creativecommons.org/ns#"
   xmlns:rdf="http://www.w3.org/1999/02/22-rdf-syntax-ns#"
   xmlns:svg="http://www.w3.org/2000/svg"
   xmlns="http://www.w3.org/2000/svg"
   xmlns:xlink="http://www.w3.org/1999/xlink"
   xmlns:sodipodi="http://sodipodi.sourceforge.net/DTD/sodipodi-0.dtd"
   xmlns:inkscape="http://www.inkscape.org/namespaces/inkscape"
   width="970"
   height="194"
   id="svg2"
   version="1.1"
   inkscape:version="0.48.4 r9939"
   inkscape:export-filename="/home/hellfire/Desktop/banner.png"
   inkscape:export-xdpi="90"
   inkscape:export-ydpi="90"
   sodipodi:docname="New document 1">
  <defs
     id="defs4" />
  <sodipodi:namedview
     id="base"
     pagecolor="#ffffff"
     bordercolor="#666666"
     borderopacity="1.0"
     inkscape:pageopacity="0.0"
     inkscape:pageshadow="2"
     inkscape:zoom="0.98994949"
     inkscape:cx="462.97327"
     inkscape:cy="78.62251"
     inkscape:document-units="px"
     inkscape:current-layer="layer1"
     showgrid="false"
     inkscape:window-width="1920"
     inkscape:window-height="1056"
     inkscape:window-x="0"
     inkscape:window-y="24"
     inkscape:window-maximized="1" />
  <metadata
     id="metadata7">
    <rdf:RDF>
      <cc:Work
         rdf:about="">
        <dc:format>image/svg+xml</dc:format>
        <dc:type
           rdf:resource="http://purl.org/dc/dcmitype/StillImage" />
        <dc:title></dc:title>
      </cc:Work>
    </rdf:RDF>
  </metadata>
  <g
     inkscape:label="Layer 1"
     inkscape:groupmode="layer"
     id="layer1"
     transform="translate(0,-858.36217)">
    <text
       xml:space="preserve"
       style="font-size:161.70385742px;font-style:normal;font-variant:normal;font-weight:normal;font-stretch:normal;line-height:125%;letter-spacing:0px;word-spacing:0px;fill:#000000;fill-opacity:1;stroke:none;font-family:Bubblegum Sans;-inkscape-font-specification:Bubblegum Sans"
       id="text2985"
       sodipodi:linespacing="125%"
       transform="translate(166.04834,8.1361415)"><textPath
         xlink:href="#path2989"
         id="textPath2991"><tspan
   rotate="0 0 0 0 0 0 0 0 0 0 0 0 0"
   id="tspan2987">Fursuits.By:</tspan></textPath></text>
    <path
       style="fill:none;stroke:none;stroke-width:1px;stroke-linecap:butt;stroke-linejoin:miter;stroke-opacity:1"
       d="M 6.428571,1034.9336 C 330.36304,941.06654 653.18026,945.36866 977.1429,1036.3622"
       id="path2989"
       inkscape:connector-curvature="0"
       sodipodi:nodetypes="cc" />
    <g
       id="g3929"
       transform="translate(183.84776,221.2234)">
      <path
         inkscape:connector-curvature="0"
         id="path3911"
         d="m 9.34375,647.54967 c -3.8020833,3.78125 -7.6041667,7.5625 -11.40625,11.34375 8.7291667,11.42708 17.458333,22.85417 26.1875,34.28125 2.71875,-2.70833 5.4375,-5.41667 8.15625,-8.125 -1.65625,-1.96875 -3.3125,-3.9375 -4.96875,-5.90625 1.506364,-1.45017 2.977164,-3.97119 4.621267,-1.2739 1.575816,0.71294 3.249095,4.25613 4.749611,2.78241 1.459707,-1.45076 2.919415,-2.90151 4.379122,-4.35226 -1.757502,-0.41519 -0.07794,-4.45792 -0.613327,-5.6378 C 30.080699,662.9578 19.712224,655.25374 9.34375,647.54967 z m -6.125,10.53125 c 3.5498291,-1.07037 4.0328158,5.69825 1.2431273,5.3861 -2.245014,0.0319 -0.8546611,-3.81319 -1.2431273,-5.3861 z m 7.5,1.59375 c 3.647974,4.18366 11.850754,8.07197 13.131311,12.21244 -3.044847,4.86497 -5.462001,-3.95548 -8.070053,-5.59111 -1.703266,-2.19469 -3.387083,-4.4044 -5.061258,-6.62133 z m -18.125,4.5625 c -2.625,2.61458 -5.25,5.22917 -7.875,7.84375 3.604167,3.61458 7.2083333,7.22917 10.8125,10.84375 -1.5120892,2.17877 -3.0162947,2.70002 -4.5061313,0.20026 -2.8833727,-2.90008 -5.7667457,-5.80017 -8.6501187,-8.70026 -2.625,2.61458 -5.25,5.22917 -7.875,7.84375 5.635417,5.64583 11.270833,11.29167 16.90625,16.9375 2.7267938,-2.87139 4.2704426,0.98327 3.9375,3.875 2.787161,3.07886 6.2838466,6.32539 9.34375,9.4687 2.625,-2.61458 5.25,-5.22917 7.875,-7.84375 -4.2291667,-4.23958 -8.4583333,-8.47917 -12.6875,-12.71875 1.494122,-2.19745 2.9871947,-2.68884 4.4784369,-0.20381 3.5176044,3.52627 7.0352091,7.05254 10.5528131,10.57881 2.625,-2.61458 5.25,-5.22917 7.875,-7.84375 -10.062488,-10.0937 -20.1250706,-20.18764 -30.1875,-30.2812 z M 3.75,681.61217 c 1.5435046,-0.27744 1.2968732,4.3448 0.1875,4.31245 -3.99403175,0.45416 -2.6976252,-3.12143 -0.1875,-4.31245 z m -31.0625,6.375 c -3.663473,0.27836 -8.551973,2.60476 -4.096641,5.05414 0.917142,3.61292 -3.757658,1.28724 -5.372109,3.25836 -0.97371,-3.14934 -2.859763,0.4226 -4.601514,1.83536 -0.70207,1.42408 -4.63273,2.84284 -2.38705,4.27179 9.746188,9.76637 19.492376,19.53273 29.238564,29.2991 2.625,-2.61458 5.25,-5.22917 7.875,-7.84375 -4.052083,-4.0625 -8.104167,-8.125 -12.15625,-12.1875 3.380003,-3.19849 8.252829,-7.9489 4.898464,-12.79565 -3.429054,-3.88847 -6.885025,-8.22125 -11.606053,-10.56098 l -0.886601,-0.22836 -0.90581,-0.10251 z m -1.875,9.25 c 2.633083,1.67108 8.223825,5.17725 5.78125,8.6875 -1.649833,0.82032 -3.236618,-2.69983 -4.859705,-3.7208 -1.243383,-1.91308 -6.055871,-3.8239 -0.921545,-4.9667 z m -22.25,10.90625 c -2.625,2.61458 -5.25,5.22917 -7.875,7.84375 1.655832,1.63103 2.108107,2.79957 4.218388,2.0938 2.420772,-0.67172 1.869208,1.97193 1.875362,3.5625 3.112528,0.17306 3.703946,0.76566 1.612153,2.08156 7.493866,7.51448 14.987731,15.02896 22.481597,22.54344 4.21875,-4.20833 8.4375,-8.41667 12.65625,-12.625 -2.010417,-2.02083 -4.020833,-4.04167 -6.03125,-6.0625 -1.59375,1.59375 -3.1875,3.1875 -4.78125,4.78125 -2.916667,-2.91667 -5.833333,-5.83333 -8.75,-8.75 -0.908518,1.88583 -2.994081,-0.0151 -5.257179,0.53125 -3.828295,0.35687 -0.02039,-4.25537 0.707534,-5.11281 -3.618857,-3.62909 -7.237807,-7.25813 -10.856605,-10.88724 z m -13.71875,13.6875 c -1.813911,1.15297 -3.238973,3.70825 0.05424,3.03125 1.323467,-0.20161 1.290734,4.31355 0.109918,4.28125 -1.753273,-0.16505 -4.216647,-4.06018 -6.542054,-0.94061 -1.6657,1.65729 -3.331399,3.31457 -4.997099,4.97186 8.71875,11.41667 17.4375,22.83333 26.15625,34.25 2.71875,-2.70833 5.4375,-5.41667 8.15625,-8.125 -1.65625,-1.96875 -3.3125,-3.9375 -4.96875,-5.90625 1.506307,-1.4501 2.978635,-3.97288 4.616542,-1.26845 1.577412,0.72374 3.249408,4.27342 4.753529,2.8074 2.44956,-2.44007 4.899119,-4.88013 7.348679,-7.3202 -11.5625,-8.59375 -23.125,-17.1875 -34.6875,-25.78125 z m 1.375,12.09375 c 3.647982,4.18365 11.850761,8.07196 13.131311,12.21244 -3.044848,4.86497 -5.461998,-3.95549 -8.07005,-5.59112 -1.703265,-2.19468 -3.387083,-4.40439 -5.061261,-6.62132 z"
         style="font-size:54.07230759px;font-style:normal;font-variant:normal;font-weight:normal;font-stretch:normal;line-height:125%;letter-spacing:0px;word-spacing:0px;fill:#ff0000;fill-opacity:1;stroke:none;font-family:Impact;-inkscape-font-specification:Impact" />
      <path
         id="path3000"
         transform="translate(0,858.36217)"
         d="m -18.6875,-243.90625 c -3.340864,-0.0132 -6.681903,0.19163 -10,0.5625 0.0454,0.0583 0.09141,0.12032 0.125,0.1875 0.10648,0.21296 -0.106479,0.50579 0,0.71875 0.01288,0.0257 0.04802,0.038 0.0625,0.0625 21.935944,-2.39183 44.792814,3.49891 62.5,16.75 -12.595727,-12.25416 -30.7842035,-16.51212 -47.75,-18.15625 -1.643946,-0.0893 -3.291129,-0.12561 -4.9375,-0.125 z m -17.25,1.6875 c -13.917447,2.73363 -27.193981,8.74611 -38.3125,17.5625 12.120278,-6.82883 24.468253,-14.25566 38.25,-16.8125 0.0316,-0.25303 0.0363,-0.49892 0.0625,-0.75 z m 17.25,6.40625 c -2.344455,-0.01 -4.696734,0.0819 -7.03125,0.28125 l 0,3.0625 c 18.7211263,-1.60299 38.040135,3.37823 53.1875,14.59375 -2.908065,-10.76302 -15.782264,-10.96708 -24.34375,-14.65625 -6.8559367,-2.68009 -14.4985,-3.09982 -21.8125,-3.28125 z m -19.875,2.4375 c -11.369293,2.85881 -22.127051,8.16171 -31.25,15.53125 10.524108,1.28238 16.442959,-11.09032 27,-11.25 1.414261,-0.45401 2.812051,-0.88001 4.25,-1.25 l 0,-2.8125 0,-0.21875 z m 80.625,13.125 c 8.359899,11.35421 19.204034,21.6309 22.5625,35.84375 1.21459,4.18629 5.622369,12.83122 2.46875,3.40625 -4.709208,-14.97327 -13.445564,-28.66064 -25.03125,-39.25 z m -7.8125,3.90625 c -0.781149,9.62123 13.128753,12.40653 14.96875,21.90625 3.558294,4.51898 6.004296,18.85168 9.75,17.71875 0.19543,-10.68919 -8.468805,-19.05679 -13.40625,-27.90625 -3.371197,-4.26032 -7.171673,-8.20163 -11.3125,-11.71875 z m -124.65625,8.15625 c -9.376998,12.03193 -15.16094,26.56789 -17.25,41.625 0.27944,0.19937 0.61078,0.30458 0.9375,0.4375 2.07425,-14.9574 7.861247,-29.40901 17.0625,-41.40625 l -0.375,-0.34375 -0.375,-0.3125 z m 6.09375,5.34375 c -8.532157,11.09782 -13.684884,24.47621 -15.4375,38.3125 0.385079,0.0466 0.797024,-0.0312 1.1875,-0.0312 l 1.8125,0 c 1.764002,-13.08288 6.71928,-25.72264 14.6875,-36.28125 l -2.25,-2 z m 154.59375,35.9375 c -0.556869,13.19271 0.744791,26.88644 -4.125,39.46875 3.898019,-3.56392 4.282244,-15.94065 5,-22.90625 0.223272,-5.53337 -0.07465,-11.08256 -0.875,-16.5625 z m -7.875,2.46875 c -5.418154,9.91605 -0.544202,22.25054 -5.0625,32.4375 5.041594,3.28384 4.167069,-10.462 5.40625,-14.0625 0.605689,-6.10581 0.512731,-12.29718 -0.34375,-18.375 z m -170.59375,9.8125 c -0.11843,0.0193 -0.23175,0.0566 -0.34375,0.0625 -0.1302,15.84123 3.77971,31.7056 11.875,45.375 -4.37559,-12.70201 -10.77893,-25.07835 -10.75,-38.84375 -0.096,-1.46335 -0.16478,-2.93971 -0.1875,-4.40625 -0.0495,-0.002 -0.2473,0.003 -0.25,0 -0.16836,-0.16836 0,-0.48065 0,-0.71875 l 0,-0.6875 c 0,-0.2381 0.16836,-0.55039 0,-0.71875 -0.0842,-0.0842 -0.21487,-0.0836 -0.34375,-0.0625 z m 7.78125,2.1875 c 0.2482,14.61608 4.253308,29.14573 12.15625,41.5 3.773208,-8.66923 -8.099419,-15.00146 -6.96875,-24.09375 -1.4117,-5.68773 -2.149295,-11.54608 -2.25,-17.40625 l -2.9375,0 z M 47.65625,-111.5 c -4.793132,7.59089 -10.96796,14.262113 -18.0625,19.75 0.10211,0.278549 0.20298,0.54673 0.40625,0.75 0.376462,0.376461 1.061039,0.342289 1.4375,0.71875 0.169138,0.169138 0.312581,0.351472 0.46875,0.53125 7.59369,-5.984068 14.15218,-13.27296 19.1875,-21.53125 L 49.375,-111.375 47.65625,-111.5 z M 59,-110.75 c -5.560058,10.16205 -13.248475,19.063207 -22.3125,26.25 0.178024,0.191673 0.411767,0.459359 0.6875,0.78125 9.246867,-7.385416 17.064619,-16.58393 22.75,-26.96875 -0.375,-0.0208 -0.75,-0.0417 -1.125,-0.0625 z m -134.625,11.21875 c -1.151145,10.15858 12.758016,11.80405 18.5,17.75 9.187551,4.90129 19.328069,8.04135 29.6875,9.125 -6.991898,-8.30914 -20.264678,-3.94728 -28.1875,-11.71875 -7.411702,-3.95219 -14.197806,-9.08225 -20,-15.15625 z m -9.0625,5.09375 c 8.639897,13.30007 23.804213,20.40951 38.125,25.90625 4.314151,1.63589 17.780382,4.49564 16.5,3.28125 -10.655967,-2.98984 -21.833784,-4.72569 -31.34375,-10.78125 -8.714871,-4.7835 -16.626049,-11.01953 -23.28125,-18.40625 z M 20,-85.375 c -10.4565111,5.917451 -22.2263563,9.497814 -34.25,10.0625 9.7664864,7.16387 21.3977669,-2.99315 31.40625,-5.125 1.320698,-0.647277 2.622367,-1.344838 3.90625,-2.0625 -0.127829,-0.212637 -0.253407,-0.430391 -0.34375,-0.65625 -0.279629,-0.699072 -0.536139,-1.394557 -0.71875,-2.125 -0.0079,-0.0315 0.0023,-0.06142 0,-0.09375 z m 2.84375,9.9375 c -11.271081,5.990982 -23.78228393,9.605711 -36.5625,10.1875 13.07302717,1.576582 25.599076,-3.740297 37.125,-9.5 -0.198368,-0.169632 -0.482641,-0.291671 -0.5625,-0.53125 -0.01697,-0.05092 0.0072,-0.10361 0,-0.15625 z"
         style="font-size:medium;font-style:normal;font-variant:normal;font-weight:normal;font-stretch:normal;text-indent:0;text-align:start;text-decoration:none;line-height:normal;letter-spacing:normal;word-spacing:normal;text-transform:none;direction:ltr;block-progression:tb;writing-mode:lr-tb;text-anchor:start;baseline-shift:baseline;color:#000000;fill:#ff0000;fill-opacity:1;stroke:none;stroke-width:1;marker:none;visibility:visible;display:inline;overflow:visible;enable-background:accumulate;font-family:Sans;-inkscape-font-specification:Sans"
         inkscape:connector-curvature="0" />
    </g>
  </g>
</svg>
